<svg width="115" height="115" viewBox="0 0 115 115" fill="none" xmlns="http://www.w3.org/2000/svg">
<circle cx="57.5" cy="57.5" r="56.5" fill="white" stroke="#C2BABA" stroke-width="2" stroke-dasharray="4 4"/>
<path d="M67 51H64.414L61.707 48.293C61.6143 48.2 61.5041 48.1262 61.3828 48.0759C61.2614 48.0256 61.1313 47.9998 61 48H57C56.8687 47.9998 56.7386 48.0256 56.6172 48.0759C56.4959 48.1262 56.3857 48.2 56.293 48.293L53.586 51H51C49.897 51 49 51.897 49 53V64C49 65.103 49.897 66 51 66H67C68.103 66 69 65.103 69 64V53C69 51.897 68.103 51 67 51ZM59 63C56.29 63 54 60.71 54 58C54 55.289 56.29 53 59 53C61.71 53 64 55.289 64 58C64 60.71 61.71 63 59 63Z" fill="#333333"/>
<path d="M60 55H58V57H56V59H58V61H60V59H62V57H60V55Z" fill="#333333"/>
</svg>
